<svg width="86" height="23" viewBox="0 0 86 23" fill="none" xmlns="http://www.w3.org/2000/svg">
<path d="M10.9137 22.48C8.91371 22.48 7.14371 22.06 5.60371 21.22C4.06371 20.38 2.86371 19.17 2.00371 17.59C1.14371 16.01 0.713711 14.13 0.713711 11.95C0.713711 10.53 0.923711 9.15 1.34371 7.81C1.78371 6.45 2.43371 5.22 3.29371 4.12C4.17371 3.02 5.26371 2.15 6.56371 1.51C7.88371 0.849999 9.41371 0.519999 11.1537 0.519999C11.8737 0.519999 12.6037 0.589999 13.3437 0.729998C14.0837 0.849999 14.7937 1.04 15.4737 1.3C16.1737 1.54 16.8037 1.83 17.3637 2.17L17.2437 0.729998H18.8937V7.6H17.8137C17.7337 6.34 17.3937 5.28 16.7937 4.42C16.2137 3.54 15.4537 2.87 14.5137 2.41C13.5737 1.95 12.5237 1.72 11.3637 1.72C10.3037 1.72 9.30371 1.96 8.36371 2.44C7.44371 2.9 6.62371 3.56 5.90371 4.42C5.20371 5.26 4.65371 6.26 4.25371 7.42C3.85371 8.58 3.65371 9.86 3.65371 11.26C3.65371 13.14 3.99371 14.82 4.67371 16.3C5.35371 17.78 6.29371 18.94 7.49371 19.78C8.71371 20.62 10.1137 21.04 11.6937 21.04C12.2337 21.04 12.7937 20.99 13.3737 20.89C13.9737 20.79 14.5637 20.63 15.1437 20.41C15.7437 20.17 16.3037 19.88 16.8237 19.54V15.88C16.8237 15.4 16.8237 14.92 16.8237 14.44C16.8237 13.94 16.8237 13.45 16.8237 12.97C16.4837 12.99 16.1337 13.01 15.7737 13.03C15.4137 13.05 15.0637 13.07 14.7237 13.09V11.77H21.5037V12.76C20.9437 12.76 20.5137 12.91 20.2137 13.21C19.9137 13.49 19.7037 13.84 19.5837 14.26C19.4637 14.66 19.3937 15.06 19.3737 15.46C19.3537 15.84 19.3437 16.13 19.3437 16.33V20.92H18.5337C18.2137 20.92 17.7737 20.98 17.2137 21.1C16.6537 21.22 16.0137 21.42 15.2937 21.7C14.6737 21.94 13.9537 22.13 13.1337 22.27C12.3137 22.41 11.5737 22.48 10.9137 22.48ZM23.776 22V21.01C24.536 20.97 25.056 20.8 25.336 20.5C25.616 20.18 25.766 19.75 25.786 19.21C25.826 18.65 25.846 18.02 25.846 17.32V4.36C25.846 3.96 25.856 3.58 25.876 3.22C25.896 2.84 25.916 2.5 25.936 2.2C25.576 2.22 25.216 2.24 24.856 2.26C24.496 2.28 24.136 2.3 23.776 2.32V0.999999C24.896 0.979999 26.026 0.959999 27.166 0.939999C28.326 0.92 29.486 0.929999 30.646 0.969999C32.586 0.989999 34.146 1.22 35.326 1.66C36.526 2.08 37.406 2.69 37.966 3.49C38.526 4.27 38.806 5.22 38.806 6.34C38.826 7.12 38.676 7.92 38.356 8.74C38.056 9.54 37.496 10.26 36.676 10.9C35.876 11.54 34.716 12.02 33.196 12.34C33.596 12.62 33.946 12.98 34.246 13.42C34.546 13.86 34.886 14.37 35.266 14.95L37.306 18.16C37.646 18.7 37.976 19.19 38.296 19.63C38.616 20.05 38.986 20.39 39.406 20.65C39.826 20.89 40.346 21.01 40.966 21.01V22H37.186C36.606 21.48 36.116 20.96 35.716 20.44C35.336 19.92 34.936 19.33 34.516 18.67L32.506 15.46C32.246 15.04 31.946 14.56 31.606 14.02C31.286 13.46 30.916 12.99 30.496 12.61C30.176 12.63 29.836 12.64 29.476 12.64C29.136 12.64 28.796 12.63 28.456 12.61V18.43C28.456 18.97 28.446 19.44 28.426 19.84C28.426 20.22 28.406 20.54 28.366 20.8C28.606 20.78 28.846 20.77 29.086 20.77C29.326 20.75 29.566 20.73 29.806 20.71C30.046 20.69 30.286 20.68 30.526 20.68V22H23.776ZM30.316 11.5C31.416 11.46 32.376 11.28 33.196 10.96C34.036 10.64 34.696 10.13 35.176 9.43C35.656 8.73 35.896 7.81 35.896 6.67C35.896 5.91 35.786 5.25 35.566 4.69C35.366 4.11 35.046 3.63 34.606 3.25C34.166 2.87 33.606 2.59 32.926 2.41C32.246 2.21 31.446 2.11 30.526 2.11C29.786 2.11 29.266 2.26 28.966 2.56C28.686 2.86 28.526 3.28 28.486 3.82C28.466 4.34 28.456 4.96 28.456 5.68V11.44C28.776 11.46 29.076 11.48 29.356 11.5C29.656 11.52 29.976 11.52 30.316 11.5ZM49.3639 1.99C48.6239 2.01 48.1039 2.18 47.8039 2.5C47.5239 2.82 47.3639 3.25 47.3239 3.79C47.3039 4.33 47.2939 4.96 47.2939 5.68V18.43C47.2939 18.97 47.2839 19.44 47.2639 19.84C47.2639 20.22 47.2439 20.54 47.2039 20.8C47.5639 20.78 47.9239 20.76 48.2839 20.74C48.6439 20.72 49.0039 20.7 49.3639 20.68V22H42.6139V21.01C43.3739 20.97 43.8939 20.8 44.1739 20.5C44.4539 20.18 44.6039 19.75 44.6239 19.21C44.6639 18.65 44.6839 18.02 44.6839 17.32V4.36C44.6839 3.96 44.6939 3.58 44.7139 3.22C44.7339 2.84 44.7539 2.5 44.7739 2.2C44.4139 2.22 44.0539 2.24 43.6939 2.26C43.3339 2.28 42.9739 2.3 42.6139 2.32V0.999999H49.3639V1.99ZM64.4527 7.36C64.3927 6.4 64.1627 5.49 63.7627 4.63C63.3627 3.77 62.7827 3.07 62.0227 2.53C61.2627 1.99 60.2927 1.72 59.1127 1.72C57.8727 1.72 56.9227 2.07 56.2627 2.77C55.6027 3.47 55.2727 4.29 55.2727 5.23C55.2727 6.07 55.5127 6.78 55.9927 7.36C56.4727 7.92 57.0927 8.42 57.8527 8.86C58.6327 9.28 59.4527 9.69 60.3127 10.09C61.0727 10.43 61.8327 10.8 62.5927 11.2C63.3527 11.58 64.0427 12.02 64.6627 12.52C65.2827 13.02 65.7727 13.62 66.1327 14.32C66.5127 15 66.7027 15.82 66.7027 16.78C66.7027 17.88 66.4227 18.86 65.8627 19.72C65.3227 20.58 64.5327 21.26 63.4927 21.76C62.4527 22.24 61.1827 22.48 59.6827 22.48C58.7827 22.48 57.8527 22.35 56.8927 22.09C55.9327 21.83 55.0827 21.45 54.3427 20.95L54.4927 22.24H52.9327L52.7527 15.85H53.9227C54.0227 17.61 54.6327 18.95 55.7527 19.87C56.8727 20.77 58.2227 21.22 59.8027 21.22C60.5827 21.22 61.3027 21.08 61.9627 20.8C62.6227 20.5 63.1427 20.07 63.5227 19.51C63.9227 18.95 64.1227 18.27 64.1227 17.47C64.1227 16.57 63.8827 15.82 63.4027 15.22C62.9227 14.62 62.3027 14.1 61.5427 13.66C60.7827 13.22 59.9727 12.8 59.1127 12.4C58.3527 12.06 57.6027 11.7 56.8627 11.32C56.1227 10.94 55.4427 10.51 54.8227 10.03C54.2227 9.53 53.7327 8.94 53.3527 8.26C52.9927 7.58 52.8127 6.76 52.8127 5.8C52.8127 5.28 52.9027 4.72 53.0827 4.12C53.2627 3.52 53.5727 2.95 54.0127 2.41C54.4727 1.85 55.0927 1.4 55.8727 1.06C56.6727 0.699999 57.6827 0.519999 58.9027 0.519999C59.6627 0.519999 60.5127 0.629999 61.4527 0.849999C62.4127 1.05 63.3027 1.45 64.1227 2.05L64.0027 0.76H65.5327V7.36H64.4527ZM80.1242 14.23C80.1242 13.35 80.0042 12.72 79.7642 12.34C79.5242 11.96 79.1442 11.73 78.6242 11.65C78.1042 11.57 77.4142 11.55 76.5542 11.59L74.3642 11.68V18.55C74.3642 19.09 74.3542 19.55 74.3342 19.93C74.3342 20.31 74.3142 20.63 74.2742 20.89L80.0042 20.8C80.8842 20.78 81.6442 20.64 82.2842 20.38C82.9242 20.1 83.4242 19.62 83.7842 18.94C84.1442 18.26 84.3242 17.33 84.3242 16.15H85.3442L85.1642 22H69.6842V21.01C70.4442 20.97 70.9642 20.8 71.2442 20.5C71.5242 20.18 71.6742 19.75 71.6942 19.21C71.7342 18.65 71.7542 18.02 71.7542 17.32V4.36C71.7542 3.96 71.7642 3.58 71.7842 3.22C71.8042 2.84 71.8242 2.5 71.8442 2.2C71.4842 2.22 71.1242 2.24 70.7642 2.26C70.4042 2.28 70.0442 2.3 69.6842 2.32V0.999999H84.1142L84.2642 6.25H83.2742C83.2742 5.07 83.0942 4.18 82.7342 3.58C82.3742 2.96 81.8842 2.55 81.2642 2.35C80.6642 2.13 79.9842 2.03 79.2242 2.05L76.6442 2.11C75.9042 2.13 75.3742 2.27 75.0542 2.53C74.7342 2.79 74.5342 3.18 74.4542 3.7C74.3942 4.2 74.3642 4.86 74.3642 5.68V10.48L80.0042 10.51L79.7942 7.93H81.1142V14.23H80.1242Z" fill="#3A6C7B"/>
</svg>
