<svg width="500" height="500" viewBox="0 0 500 500" fill="none" xmlns="http://www.w3.org/2000/svg">
<path d="M183.935 218.02C184.908 217.02 185.395 215.7 185.395 214.06C185.395 212.42 184.908 211.107 183.935 210.12C182.962 209.12 181.715 208.62 180.195 208.62C178.688 208.62 177.442 209.12 176.455 210.12C175.482 211.107 174.995 212.42 174.995 214.06C174.995 215.7 175.488 217.02 176.475 218.02C177.462 219.02 178.708 219.52 180.215 219.52C181.722 219.52 182.962 219.02 183.935 218.02ZM180.215 221.14C178.228 221.14 176.555 220.473 175.195 219.14C173.835 217.793 173.155 216.1 173.155 214.06C173.155 212.007 173.835 210.32 175.195 209C176.555 207.667 178.228 207 180.215 207C182.202 207 183.868 207.667 185.215 209C186.575 210.32 187.255 212.007 187.255 214.06C187.255 216.113 186.575 217.807 185.215 219.14C183.868 220.473 182.202 221.14 180.215 221.14ZM198.66 207.14H200.48V221H198.66L191.34 210V221H189.52V207.14H191.34L198.66 218.14V207.14ZM210.824 207.14V208.58H205.304V213.3H210.224V214.72H205.304V219.56H210.824V221H203.484V207.14H210.824ZM213.582 207.14H215.402V219.6H220.262V221H213.582V207.14ZM222.156 221V207.14H223.976V221H222.156ZM236.12 207.14H237.94V221H236.12L228.8 210V221H226.98V207.14H228.8L236.12 218.14V207.14ZM248.285 207.14V208.58H242.765V213.3H247.685V214.72H242.765V219.56H248.285V221H240.945V207.14H248.285ZM257.039 221V207.14H264.839V208.6H258.859V213.3H263.579V214.74H258.859V221H257.039ZM266.844 221V207.14H268.664V221H266.844ZM271.048 208.6V207.14H280.188V208.6H276.528V221H274.708V208.6H271.048ZM291.726 207.14H293.546V221H291.726L284.406 210V221H282.586V207.14H284.406L291.726 218.14V207.14ZM303.891 207.14V208.58H298.371V213.3H303.291V214.72H298.371V219.56H303.891V221H296.551V207.14H303.891ZM308.128 210.84C308.128 211.347 308.268 211.767 308.548 212.1C308.828 212.433 309.188 212.68 309.628 212.84C310.068 213 310.555 213.14 311.088 213.26C311.635 213.38 312.175 213.52 312.708 213.68C313.255 213.827 313.748 214.02 314.188 214.26C314.628 214.5 314.988 214.86 315.268 215.34C315.548 215.82 315.688 216.413 315.688 217.12C315.688 218.2 315.275 219.14 314.448 219.94C313.622 220.74 312.502 221.14 311.088 221.14C309.688 221.14 308.548 220.82 307.668 220.18C306.788 219.527 306.348 218.647 306.348 217.54H308.288C308.342 218.167 308.588 218.673 309.028 219.06C309.482 219.447 310.148 219.64 311.028 219.64C311.908 219.64 312.608 219.413 313.128 218.96C313.648 218.507 313.908 217.98 313.908 217.38C313.908 216.767 313.768 216.3 313.488 215.98C313.208 215.647 312.848 215.4 312.408 215.24C311.968 215.08 311.475 214.947 310.928 214.84C310.395 214.72 309.855 214.58 309.308 214.42C308.775 214.26 308.288 214.06 307.848 213.82C307.408 213.567 307.048 213.2 306.768 212.72C306.488 212.227 306.348 211.62 306.348 210.9C306.348 209.727 306.762 208.787 307.588 208.08C308.428 207.36 309.515 207 310.848 207C312.195 207 313.262 207.313 314.048 207.94C314.848 208.553 315.308 209.407 315.428 210.5H313.408C313.355 209.953 313.095 209.487 312.628 209.1C312.175 208.713 311.555 208.52 310.768 208.52C309.995 208.52 309.362 208.72 308.868 209.12C308.375 209.507 308.128 210.08 308.128 210.84ZM319.867 210.84C319.867 211.347 320.007 211.767 320.287 212.1C320.567 212.433 320.927 212.68 321.367 212.84C321.807 213 322.293 213.14 322.827 213.26C323.373 213.38 323.913 213.52 324.447 213.68C324.993 213.827 325.487 214.02 325.927 214.26C326.367 214.5 326.727 214.86 327.007 215.34C327.287 215.82 327.427 216.413 327.427 217.12C327.427 218.2 327.013 219.14 326.187 219.94C325.36 220.74 324.24 221.14 322.827 221.14C321.427 221.14 320.287 220.82 319.407 220.18C318.527 219.527 318.087 218.647 318.087 217.54H320.027C320.08 218.167 320.327 218.673 320.767 219.06C321.22 219.447 321.887 219.64 322.767 219.64C323.647 219.64 324.347 219.413 324.867 218.96C325.387 218.507 325.647 217.98 325.647 217.38C325.647 216.767 325.507 216.3 325.227 215.98C324.947 215.647 324.587 215.4 324.147 215.24C323.707 215.08 323.213 214.947 322.667 214.84C322.133 214.72 321.593 214.58 321.047 214.42C320.513 214.26 320.027 214.06 319.587 213.82C319.147 213.567 318.787 213.2 318.507 212.72C318.227 212.227 318.087 211.62 318.087 210.9C318.087 209.727 318.5 208.787 319.327 208.08C320.167 207.36 321.253 207 322.587 207C323.933 207 325 207.313 325.787 207.94C326.587 208.553 327.047 209.407 327.167 210.5H325.147C325.093 209.953 324.833 209.487 324.367 209.1C323.913 208.713 323.293 208.52 322.507 208.52C321.733 208.52 321.1 208.72 320.607 209.12C320.113 209.507 319.867 210.08 319.867 210.84Z" fill="#3A6C7B"/>
<path d="M204.072 245.12C202.086 245.12 200.412 244.453 199.052 243.12C197.692 241.787 197.012 240.1 197.012 238.06C197.012 236.007 197.692 234.32 199.052 233C200.412 231.667 202.086 231 204.072 231C205.512 231 206.792 231.34 207.912 232.02C209.046 232.7 209.879 233.68 210.412 234.96H208.212C207.386 233.4 206.006 232.62 204.072 232.62C202.566 232.62 201.319 233.12 200.332 234.12C199.359 235.107 198.872 236.42 198.872 238.06C198.872 239.7 199.359 241.02 200.332 242.02C201.319 243.02 202.566 243.52 204.072 243.52C204.992 243.52 205.812 243.32 206.532 242.92C207.252 242.507 207.812 241.92 208.212 241.16H210.412C209.879 242.44 209.046 243.42 207.912 244.1C206.792 244.78 205.512 245.12 204.072 245.12ZM223.339 242.02C224.313 241.02 224.799 239.7 224.799 238.06C224.799 236.42 224.313 235.107 223.339 234.12C222.366 233.12 221.119 232.62 219.599 232.62C218.093 232.62 216.846 233.12 215.859 234.12C214.886 235.107 214.399 236.42 214.399 238.06C214.399 239.7 214.893 241.02 215.879 242.02C216.866 243.02 218.113 243.52 219.619 243.52C221.126 243.52 222.366 243.02 223.339 242.02ZM219.619 245.14C217.633 245.14 215.959 244.473 214.599 243.14C213.239 241.793 212.559 240.1 212.559 238.06C212.559 236.007 213.239 234.32 214.599 233C215.959 231.667 217.633 231 219.619 231C221.606 231 223.273 231.667 224.619 233C225.979 234.32 226.659 236.007 226.659 238.06C226.659 240.113 225.979 241.807 224.619 243.14C223.273 244.473 221.606 245.14 219.619 245.14ZM238.484 245L237.404 241.96H231.244L230.164 245H228.304L233.344 231.14H235.344L240.364 245H238.484ZM231.764 240.52H236.884L234.324 233.36L231.764 240.52ZM249.092 245.12C247.105 245.12 245.432 244.453 244.072 243.12C242.712 241.787 242.032 240.1 242.032 238.06C242.032 236.007 242.712 234.32 244.072 233C245.432 231.667 247.105 231 249.092 231C250.532 231 251.812 231.34 252.932 232.02C254.065 232.7 254.899 233.68 255.432 234.96H253.232C252.405 233.4 251.025 232.62 249.092 232.62C247.585 232.62 246.339 233.12 245.352 234.12C244.379 235.107 243.892 236.42 243.892 238.06C243.892 239.7 244.379 241.02 245.352 242.02C246.339 243.02 247.585 243.52 249.092 243.52C250.012 243.52 250.832 243.32 251.552 242.92C252.272 242.507 252.832 241.92 253.232 241.16H255.432C254.899 242.44 254.065 243.42 252.932 244.1C251.812 244.78 250.532 245.12 249.092 245.12ZM267.099 231.14H268.939V245H267.099V238.74H260.119V245H258.299V231.14H260.119V237.3H267.099V231.14ZM271.932 245V231.14H273.752V245H271.932ZM285.896 231.14H287.716V245H285.896L278.576 234V245H276.756V231.14H278.576L285.896 242.14V231.14ZM296.941 245.12C295.034 245.12 293.401 244.453 292.041 243.12C290.681 241.787 290.001 240.1 290.001 238.06C290.001 236.007 290.681 234.32 292.041 233C293.401 231.667 295.074 231 297.061 231C298.501 231 299.781 231.34 300.901 232.02C302.034 232.7 302.867 233.68 303.401 234.96H301.201C300.374 233.4 298.994 232.62 297.061 232.62C295.554 232.62 294.307 233.12 293.321 234.12C292.347 235.107 291.861 236.42 291.861 238.06C291.861 239.7 292.347 241.02 293.321 242.02C294.307 243.02 295.527 243.52 296.981 243.52C298.447 243.52 299.621 243.107 300.501 242.28C301.394 241.453 301.914 240.333 302.061 238.92H296.341V237.48H303.981V238.92C303.794 240.707 303.054 242.187 301.761 243.36C300.467 244.533 298.861 245.12 296.941 245.12Z" fill="#3A6C7B"/>
<path d="M206.588 255.14C208.148 255.14 209.335 255.52 210.148 256.28C210.975 257.04 211.388 258.013 211.388 259.2C211.388 260.387 210.988 261.367 210.188 262.14C209.401 262.9 208.201 263.28 206.588 263.28H203.908V269H202.088V255.14H206.588ZM203.908 261.84H206.588C207.588 261.84 208.328 261.613 208.808 261.16C209.301 260.693 209.548 260.047 209.548 259.22C209.548 257.473 208.561 256.6 206.588 256.6H203.908V261.84ZM213.65 255.14H215.47V267.6H220.33V269H213.65V255.14ZM231.785 269L230.705 265.96H224.545L223.465 269H221.605L226.645 255.14H228.645L233.665 269H231.785ZM225.065 264.52H230.185L227.625 257.36L225.065 264.52ZM235.433 256.6V255.14H244.573V256.6H240.913V269H239.093V256.6H235.433ZM246.971 269V255.14H254.771V256.6H248.791V261.3H253.511V262.74H248.791V269H246.971ZM266.835 266.02C267.809 265.02 268.295 263.7 268.295 262.06C268.295 260.42 267.809 259.107 266.835 258.12C265.862 257.12 264.615 256.62 263.095 256.62C261.589 256.62 260.342 257.12 259.355 258.12C258.382 259.107 257.895 260.42 257.895 262.06C257.895 263.7 258.389 265.02 259.375 266.02C260.362 267.02 261.609 267.52 263.115 267.52C264.622 267.52 265.862 267.02 266.835 266.02ZM263.115 269.14C261.129 269.14 259.455 268.473 258.095 267.14C256.735 265.793 256.055 264.1 256.055 262.06C256.055 260.007 256.735 258.32 258.095 257C259.455 255.667 261.129 255 263.115 255C265.102 255 266.769 255.667 268.115 257C269.475 258.32 270.155 260.007 270.155 262.06C270.155 264.113 269.475 265.807 268.115 267.14C266.769 268.473 265.102 269.14 263.115 269.14ZM274.24 263.28V269H272.42V255.14H276.92C278.48 255.14 279.667 255.52 280.48 256.28C281.307 257.04 281.72 257.973 281.72 259.08C281.72 260.173 281.42 261.087 280.82 261.82C280.22 262.553 279.32 263.013 278.12 263.2L281.94 269H279.66L276.02 263.28H274.24ZM274.24 256.6V261.84H276.92C277.92 261.84 278.66 261.613 279.14 261.16C279.633 260.693 279.88 260.047 279.88 259.22C279.88 257.473 278.893 256.6 276.92 256.6H274.24ZM298.904 255.14V269H297.064V258.9L292.424 269H291.244L286.584 258.9V269H284.764V255.14H286.624L291.844 266.5L297.044 255.14H298.904Z" fill="#3A6C7B"/>
<path d="M190.285 203.88C186.618 203.88 183.373 203.11 180.55 201.57C177.727 200.03 175.527 197.812 173.95 194.915C172.373 192.018 171.585 188.572 171.585 184.575C171.585 181.972 171.97 179.442 172.74 176.985C173.547 174.492 174.738 172.237 176.315 170.22C177.928 168.203 179.927 166.608 182.31 165.435C184.73 164.225 187.535 163.62 190.725 163.62C192.045 163.62 193.383 163.748 194.74 164.005C196.097 164.225 197.398 164.573 198.645 165.05C199.928 165.49 201.083 166.022 202.11 166.645L201.89 164.005H204.915V176.6H202.935C202.788 174.29 202.165 172.347 201.065 170.77C200.002 169.157 198.608 167.928 196.885 167.085C195.162 166.242 193.237 165.82 191.11 165.82C189.167 165.82 187.333 166.26 185.61 167.14C183.923 167.983 182.42 169.193 181.1 170.77C179.817 172.31 178.808 174.143 178.075 176.27C177.342 178.397 176.975 180.743 176.975 183.31C176.975 186.757 177.598 189.837 178.845 192.55C180.092 195.263 181.815 197.39 184.015 198.93C186.252 200.47 188.818 201.24 191.715 201.24C192.705 201.24 193.732 201.148 194.795 200.965C195.895 200.782 196.977 200.488 198.04 200.085C199.14 199.645 200.167 199.113 201.12 198.49V191.78C201.12 190.9 201.12 190.02 201.12 189.14C201.12 188.223 201.12 187.325 201.12 186.445C200.497 186.482 199.855 186.518 199.195 186.555C198.535 186.592 197.893 186.628 197.27 186.665V184.245H209.7V186.06C208.673 186.06 207.885 186.335 207.335 186.885C206.785 187.398 206.4 188.04 206.18 188.81C205.96 189.543 205.832 190.277 205.795 191.01C205.758 191.707 205.74 192.238 205.74 192.605V201.02H204.255C203.668 201.02 202.862 201.13 201.835 201.35C200.808 201.57 199.635 201.937 198.315 202.45C197.178 202.89 195.858 203.238 194.355 203.495C192.852 203.752 191.495 203.88 190.285 203.88ZM213.866 203V201.185C215.259 201.112 216.212 200.8 216.726 200.25C217.239 199.663 217.514 198.875 217.551 197.885C217.624 196.858 217.661 195.703 217.661 194.42V170.66C217.661 169.927 217.679 169.23 217.716 168.57C217.752 167.873 217.789 167.25 217.826 166.7C217.166 166.737 216.506 166.773 215.846 166.81C215.186 166.847 214.526 166.883 213.866 166.92V164.5C215.919 164.463 217.991 164.427 220.081 164.39C222.207 164.353 224.334 164.372 226.461 164.445C230.017 164.482 232.877 164.903 235.041 165.71C237.241 166.48 238.854 167.598 239.881 169.065C240.907 170.495 241.421 172.237 241.421 174.29C241.457 175.72 241.182 177.187 240.596 178.69C240.046 180.157 239.019 181.477 237.516 182.65C236.049 183.823 233.922 184.703 231.136 185.29C231.869 185.803 232.511 186.463 233.061 187.27C233.611 188.077 234.234 189.012 234.931 190.075L238.671 195.96C239.294 196.95 239.899 197.848 240.486 198.655C241.072 199.425 241.751 200.048 242.521 200.525C243.291 200.965 244.244 201.185 245.381 201.185V203H238.451C237.387 202.047 236.489 201.093 235.756 200.14C235.059 199.187 234.326 198.105 233.556 196.895L229.871 191.01C229.394 190.24 228.844 189.36 228.221 188.37C227.634 187.343 226.956 186.482 226.186 185.785C225.599 185.822 224.976 185.84 224.316 185.84C223.692 185.84 223.069 185.822 222.446 185.785V196.455C222.446 197.445 222.427 198.307 222.391 199.04C222.391 199.737 222.354 200.323 222.281 200.8C222.721 200.763 223.161 200.745 223.601 200.745C224.041 200.708 224.481 200.672 224.921 200.635C225.361 200.598 225.801 200.58 226.241 200.58V203H213.866ZM225.856 183.75C227.872 183.677 229.632 183.347 231.136 182.76C232.676 182.173 233.886 181.238 234.766 179.955C235.646 178.672 236.086 176.985 236.086 174.895C236.086 173.502 235.884 172.292 235.481 171.265C235.114 170.202 234.527 169.322 233.721 168.625C232.914 167.928 231.887 167.415 230.641 167.085C229.394 166.718 227.927 166.535 226.241 166.535C224.884 166.535 223.931 166.81 223.381 167.36C222.867 167.91 222.574 168.68 222.501 169.67C222.464 170.623 222.446 171.76 222.446 173.08V183.64C223.032 183.677 223.582 183.713 224.096 183.75C224.646 183.787 225.232 183.787 225.856 183.75ZM260.777 166.315C259.42 166.352 258.467 166.663 257.917 167.25C257.404 167.837 257.11 168.625 257.037 169.615C257 170.605 256.982 171.76 256.982 173.08V196.455C256.982 197.445 256.964 198.307 256.927 199.04C256.927 199.737 256.89 200.323 256.817 200.8C257.477 200.763 258.137 200.727 258.797 200.69C259.457 200.653 260.117 200.617 260.777 200.58V203H248.402V201.185C249.795 201.112 250.749 200.8 251.262 200.25C251.775 199.663 252.05 198.875 252.087 197.885C252.16 196.858 252.197 195.703 252.197 194.42V170.66C252.197 169.927 252.215 169.23 252.252 168.57C252.289 167.873 252.325 167.25 252.362 166.7C251.702 166.737 251.042 166.773 250.382 166.81C249.722 166.847 249.062 166.883 248.402 166.92V164.5H260.777V166.315ZM288.44 176.16C288.33 174.4 287.908 172.732 287.175 171.155C286.441 169.578 285.378 168.295 283.985 167.305C282.591 166.315 280.813 165.82 278.65 165.82C276.376 165.82 274.635 166.462 273.425 167.745C272.215 169.028 271.61 170.532 271.61 172.255C271.61 173.795 272.05 175.097 272.93 176.16C273.81 177.187 274.946 178.103 276.34 178.91C277.77 179.68 279.273 180.432 280.85 181.165C282.243 181.788 283.636 182.467 285.03 183.2C286.423 183.897 287.688 184.703 288.825 185.62C289.961 186.537 290.86 187.637 291.52 188.92C292.216 190.167 292.565 191.67 292.565 193.43C292.565 195.447 292.051 197.243 291.025 198.82C290.035 200.397 288.586 201.643 286.68 202.56C284.773 203.44 282.445 203.88 279.695 203.88C278.045 203.88 276.34 203.642 274.58 203.165C272.82 202.688 271.261 201.992 269.905 201.075L270.18 203.44H267.32L266.99 191.725H269.135C269.318 194.952 270.436 197.408 272.49 199.095C274.543 200.745 277.018 201.57 279.915 201.57C281.345 201.57 282.665 201.313 283.875 200.8C285.085 200.25 286.038 199.462 286.735 198.435C287.468 197.408 287.835 196.162 287.835 194.695C287.835 193.045 287.395 191.67 286.515 190.57C285.635 189.47 284.498 188.517 283.105 187.71C281.711 186.903 280.226 186.133 278.65 185.4C277.256 184.777 275.881 184.117 274.525 183.42C273.168 182.723 271.921 181.935 270.785 181.055C269.685 180.138 268.786 179.057 268.09 177.81C267.43 176.563 267.1 175.06 267.1 173.3C267.1 172.347 267.265 171.32 267.595 170.22C267.925 169.12 268.493 168.075 269.3 167.085C270.143 166.058 271.28 165.233 272.71 164.61C274.176 163.95 276.028 163.62 278.265 163.62C279.658 163.62 281.216 163.822 282.94 164.225C284.7 164.592 286.331 165.325 287.835 166.425L287.615 164.06H290.42V176.16H288.44ZM317.171 188.755C317.171 187.142 316.951 185.987 316.511 185.29C316.071 184.593 315.374 184.172 314.421 184.025C313.468 183.878 312.203 183.842 310.626 183.915L306.611 184.08V196.675C306.611 197.665 306.593 198.508 306.556 199.205C306.556 199.902 306.519 200.488 306.446 200.965L316.951 200.8C318.564 200.763 319.958 200.507 321.131 200.03C322.304 199.517 323.221 198.637 323.881 197.39C324.541 196.143 324.871 194.438 324.871 192.275H326.741L326.411 203H298.031V201.185C299.424 201.112 300.378 200.8 300.891 200.25C301.404 199.663 301.679 198.875 301.716 197.885C301.789 196.858 301.826 195.703 301.826 194.42V170.66C301.826 169.927 301.844 169.23 301.881 168.57C301.918 167.873 301.954 167.25 301.991 166.7C301.331 166.737 300.671 166.773 300.011 166.81C299.351 166.847 298.691 166.883 298.031 166.92V164.5H324.486L324.761 174.125H322.946C322.946 171.962 322.616 170.33 321.956 169.23C321.296 168.093 320.398 167.342 319.261 166.975C318.161 166.572 316.914 166.388 315.521 166.425L310.791 166.535C309.434 166.572 308.463 166.828 307.876 167.305C307.289 167.782 306.923 168.497 306.776 169.45C306.666 170.367 306.611 171.577 306.611 173.08V181.88L316.951 181.935L316.566 177.205H318.986V188.755H317.171Z" fill="#3A6C7B"/>
<path d="M193.5 336V321.96H202.64V324.56H196.92V327.58H201.2V330.18H196.92V336H193.5ZM214.064 331.88C214.744 331.147 215.084 330.167 215.084 328.94C215.084 327.713 214.744 326.733 214.064 326C213.397 325.267 212.497 324.9 211.364 324.9C210.244 324.9 209.344 325.267 208.664 326C207.997 326.733 207.664 327.713 207.664 328.94C207.664 330.167 207.997 331.147 208.664 331.88C209.344 332.613 210.244 332.98 211.364 332.98C212.497 332.98 213.397 332.613 214.064 331.88ZM206.264 334.1C204.877 332.74 204.184 331.02 204.184 328.94C204.184 326.86 204.877 325.147 206.264 323.8C207.664 322.44 209.371 321.76 211.384 321.76C213.411 321.76 215.111 322.44 216.484 323.8C217.871 325.147 218.564 326.86 218.564 328.94C218.564 331.02 217.871 332.74 216.484 334.1C215.097 335.46 213.397 336.14 211.384 336.14C209.371 336.14 207.664 335.46 206.264 334.1ZM224.186 330.54V336H220.766V321.96H226.306C227.932 321.96 229.199 322.38 230.106 323.22C231.012 324.06 231.466 325.073 231.466 326.26C231.466 327.073 231.219 327.867 230.726 328.64C230.232 329.413 229.426 329.96 228.306 330.28L231.746 336H227.746L224.586 330.54H224.186ZM224.186 324.56V327.94H226.306C226.826 327.94 227.232 327.787 227.526 327.48C227.832 327.173 227.986 326.773 227.986 326.28C227.986 325.773 227.832 325.36 227.526 325.04C227.219 324.72 226.812 324.56 226.306 324.56H224.186ZM239.161 324.56V321.96H250.241V324.56H246.401V336H242.981V324.56H239.161ZM252.229 330.34V321.96H255.649V330.34C255.649 331.18 255.856 331.827 256.269 332.28C256.682 332.733 257.289 332.96 258.089 332.96C258.889 332.96 259.502 332.733 259.929 332.28C260.356 331.827 260.569 331.18 260.569 330.34V321.96H263.989V330.34C263.989 331.58 263.696 332.653 263.109 333.56C262.536 334.453 261.802 335.107 260.909 335.52C260.029 335.933 259.069 336.14 258.029 336.14C256.402 336.14 255.029 335.633 253.909 334.62C252.789 333.607 252.229 332.18 252.229 330.34ZM265.958 324.56V321.96H277.038V324.56H273.198V336H269.778V324.56H265.958ZM288.146 331.88C288.826 331.147 289.166 330.167 289.166 328.94C289.166 327.713 288.826 326.733 288.146 326C287.479 325.267 286.579 324.9 285.446 324.9C284.326 324.9 283.426 325.267 282.746 326C282.079 326.733 281.746 327.713 281.746 328.94C281.746 330.167 282.079 331.147 282.746 331.88C283.426 332.613 284.326 332.98 285.446 332.98C286.579 332.98 287.479 332.613 288.146 331.88ZM280.346 334.1C278.959 332.74 278.266 331.02 278.266 328.94C278.266 326.86 278.959 325.147 280.346 323.8C281.746 322.44 283.453 321.76 285.466 321.76C287.493 321.76 289.193 322.44 290.566 323.8C291.953 325.147 292.646 326.86 292.646 328.94C292.646 331.02 291.953 332.74 290.566 334.1C289.179 335.46 287.479 336.14 285.466 336.14C283.453 336.14 281.746 335.46 280.346 334.1ZM298.268 330.54V336H294.848V321.96H300.388C302.014 321.96 303.281 322.38 304.188 323.22C305.094 324.06 305.548 325.073 305.548 326.26C305.548 327.073 305.301 327.867 304.808 328.64C304.314 329.413 303.508 329.96 302.388 330.28L305.828 336H301.828L298.668 330.54H298.268ZM298.268 324.56V327.94H300.388C300.908 327.94 301.314 327.787 301.608 327.48C301.914 327.173 302.068 326.773 302.068 326.28C302.068 325.773 301.914 325.36 301.608 325.04C301.301 324.72 300.894 324.56 300.388 324.56H298.268Z" fill="#3A6C7B"/>
</svg>
