<?xml version="1.0" standalone="no"?>
<!DOCTYPE svg PUBLIC "-//W3C//DTD SVG 20010904//EN"
 "http://www.w3.org/TR/2001/REC-SVG-20010904/DTD/svg10.dtd">
<svg version="1.0" xmlns="http://www.w3.org/2000/svg"
 width="2752.000000pt" height="2752.000000pt" viewBox="0 0 2752.000000 2752.000000"
 preserveAspectRatio="xMidYMid meet">
<metadata>
Created by potrace 1.14, written by Peter Selinger 2001-2017
</metadata>
<g transform="translate(0.000000,2752.000000) scale(0.100000,-0.100000)"
fill="#000000" stroke="none">
<path d="M3437 17274 c-1 -1 -54 -5 -117 -9 -180 -11 -312 -26 -426 -49 -12
-2 -37 -7 -55 -10 -67 -11 -246 -58 -354 -94 -60 -20 -112 -37 -115 -37 -87
-25 -481 -221 -502 -250 -4 -5 -8 -6 -8 -2 0 4 -15 -3 -33 -17 -19 -15 -39
-26 -45 -26 -7 0 -12 -4 -12 -8 0 -5 -11 -14 -24 -20 -30 -14 -264 -190 -325
-245 -73 -66 -273 -269 -309 -315 -19 -22 -42 -51 -53 -64 -10 -13 -22 -27
-27 -33 -4 -5 -43 -59 -85 -120 -42 -60 -80 -114 -85 -120 -6 -9 -73 -118
-109 -180 -7 -11 -22 -40 -35 -65 -12 -25 -26 -46 -30 -48 -4 -2 -8 -12 -8
-23 0 -10 -4 -19 -8 -19 -5 0 -15 -18 -22 -40 -7 -22 -17 -40 -22 -40 -4 0 -8
-6 -8 -14 0 -7 -10 -33 -23 -57 -13 -24 -31 -64 -41 -89 -10 -25 -23 -56 -29
-70 -6 -14 -11 -27 -12 -30 -3 -9 -17 -45 -30 -80 -12 -29 -24 -66 -30 -90 -1
-3 -4 -12 -8 -20 -10 -25 -39 -114 -42 -131 -2 -9 -12 -47 -24 -85 -11 -38
-22 -80 -24 -94 -3 -14 -10 -43 -16 -65 -6 -22 -12 -51 -15 -65 -2 -14 -5 -25
-6 -25 -1 0 -3 -9 -4 -20 -8 -55 -18 -110 -21 -115 -2 -3 -6 -29 -10 -59 -4
-30 -8 -61 -10 -70 -2 -9 -6 -44 -10 -76 -4 -33 -8 -71 -10 -85 -4 -23 -8 -71
-20 -235 -5 -68 -5 -409 0 -500 5 -109 16 -243 20 -264 2 -11 6 -46 10 -78 3
-32 8 -71 12 -88 3 -16 7 -41 9 -55 1 -14 5 -34 7 -45 3 -11 8 -40 12 -65 4
-25 13 -70 21 -100 7 -30 16 -70 19 -89 3 -19 8 -38 11 -43 3 -5 7 -19 10 -33
15 -83 152 -456 204 -555 10 -19 21 -42 24 -50 6 -14 44 -84 95 -175 136 -241
409 -569 616 -740 26 -22 58 -48 69 -57 46 -39 99 -78 105 -78 3 0 17 -10 31
-23 28 -25 213 -141 275 -172 22 -11 42 -22 45 -25 6 -6 161 -82 175 -86 6 -2
66 -26 135 -53 120 -48 153 -61 175 -67 6 -1 42 -12 80 -24 39 -12 86 -26 105
-30 19 -5 63 -15 97 -24 58 -15 74 -18 148 -31 17 -3 37 -8 45 -10 13 -4 61
-11 130 -20 19 -2 124 -15 170 -20 202 -22 576 -23 745 -1 17 2 59 7 95 10 36
4 79 9 95 11 78 13 93 15 130 20 22 4 47 8 55 10 8 2 31 7 50 10 67 11 146 27
240 51 52 14 106 27 118 30 13 2 43 11 65 19 23 8 50 15 60 15 9 0 17 5 17 12
0 6 2 9 6 6 3 -3 35 5 72 19 37 13 81 28 97 33 17 5 39 14 50 20 23 11 291
100 319 106 10 2 33 8 50 13 26 9 183 45 236 56 8 1 33 6 55 10 22 4 51 9 65
10 14 1 45 6 70 10 25 5 126 9 225 9 l180 2 2 39 c2 22 5 420 7 885 2 465 7
868 10 895 6 49 10 80 21 140 10 55 57 230 65 240 4 6 11 21 15 34 29 94 170
257 268 310 31 17 57 28 57 25 0 -4 6 -2 13 4 16 13 113 33 176 36 28 1 53 5
57 8 9 10 11 120 1 141 -4 9 -4 17 1 17 8 0 7 69 -2 77 -3 3 -1 15 4 27 19 52
71 50 -1072 51 -585 0 -1070 -1 -1079 -3 -15 -3 -17 -27 -18 -212 l-1 -208 83
4 c45 2 118 6 162 9 44 2 132 7 195 10 63 3 140 8 170 10 30 2 57 0 60 -4 4
-7 5 -2043 1 -2087 -1 -11 -179 -121 -242 -149 -19 -9 -52 -26 -74 -38 -22
-13 -42 -23 -45 -24 -3 0 -36 -15 -74 -32 -63 -28 -280 -108 -316 -116 -8 -2
-51 -12 -95 -24 -44 -11 -91 -22 -105 -25 -14 -2 -32 -7 -40 -10 -15 -5 -65
-15 -105 -20 -11 -1 -38 -6 -60 -10 -39 -7 -67 -10 -170 -21 -27 -3 -68 -7
-90 -10 -53 -6 -344 -6 -420 0 -107 9 -214 22 -260 32 -16 3 -39 7 -50 9 -11
1 -20 3 -20 4 0 1 -8 3 -19 5 -10 2 -41 9 -70 16 -65 17 -59 15 -76 21 -8 3
-33 11 -55 17 -90 28 -186 66 -282 112 -55 27 -106 49 -111 49 -6 0 -12 3 -14
8 -1 4 -34 26 -73 49 -254 150 -484 363 -715 663 -14 18 -27 38 -29 43 -2 6
-12 20 -23 31 -10 11 -18 25 -18 32 0 7 -4 14 -8 16 -30 11 -265 460 -297 568
-4 14 -13 39 -20 55 -36 82 -124 377 -140 470 -2 11 -15 83 -29 160 -15 77
-29 163 -32 190 -3 28 -7 66 -9 85 -15 140 -19 228 -19 470 -1 253 5 384 19
500 17 132 28 203 51 318 12 64 14 70 29 132 3 11 8 30 11 43 29 117 101 336
116 354 6 7 8 13 5 13 -7 0 34 100 84 205 18 39 33 72 34 75 6 19 19 46 24 50
3 3 16 25 29 50 37 73 133 233 160 265 4 6 22 30 39 55 17 25 40 56 52 70 11
14 24 30 28 35 64 86 253 282 338 350 27 22 57 47 66 55 35 32 60 50 69 50 6
0 10 4 10 9 0 15 191 133 338 208 78 40 142 70 142 67 0 -4 6 -2 13 3 26 21
266 100 327 108 8 1 26 5 40 8 34 9 79 17 115 22 17 2 57 7 90 11 105 15 555
9 555 -7 0 -3 10 -5 23 -4 12 1 38 -2 57 -6 19 -4 49 -10 65 -13 60 -10 179
-39 205 -49 8 -3 33 -11 55 -17 22 -6 49 -15 60 -20 11 -4 56 -22 100 -40 121
-48 330 -163 392 -215 7 -5 19 -16 27 -22 8 -7 17 -13 20 -13 17 0 236 -214
297 -290 112 -138 219 -315 279 -460 17 -41 35 -84 40 -95 25 -56 78 -273 94
-380 13 -87 16 -115 22 -170 3 -33 7 -61 8 -62 3 -3 247 -5 311 -4 l31 1 -1
1098 0 1097 -262 1 -262 1 5 -81 c2 -45 6 -99 8 -121 4 -45 18 -217 18 -225 1
-28 -6 -28 -54 0 -66 39 -294 150 -338 165 -3 1 -18 7 -35 14 -73 31 -401 146
-445 157 -8 2 -60 15 -115 29 -55 15 -111 28 -125 30 -14 2 -50 9 -80 15 -30
6 -68 13 -85 15 -16 3 -41 7 -55 10 -53 11 -133 23 -195 30 -27 4 -63 8 -80
10 -89 11 -500 26 -508 19z"/>
<path d="M18727 17274 c-1 -1 -47 -5 -102 -8 -55 -4 -116 -8 -135 -11 -19 -2
-55 -7 -80 -9 -38 -5 -130 -22 -215 -40 -91 -19 -237 -69 -353 -122 -71 -32
-262 -140 -272 -154 -3 -4 -12 -11 -21 -16 -60 -33 -206 -172 -278 -264 -28
-36 -55 -70 -60 -76 -5 -6 -21 -30 -36 -55 -16 -24 -31 -46 -34 -49 -7 -6
-105 -201 -107 -215 -1 -5 -8 -23 -15 -40 -6 -16 -13 -34 -15 -40 -1 -5 -12
-39 -23 -74 -12 -35 -18 -67 -15 -72 3 -5 1 -9 -4 -9 -5 0 -9 -6 -9 -12 0 -7
-3 -25 -7 -40 -34 -152 -41 -221 -41 -403 0 -243 23 -392 87 -580 96 -283 353
-614 633 -815 50 -36 92 -68 93 -72 2 -5 8 -8 13 -8 4 0 37 -19 71 -42 93 -62
124 -81 223 -137 50 -28 97 -56 105 -61 8 -6 26 -15 40 -20 20 -9 100 -49 180
-91 62 -33 498 -239 505 -239 2 0 46 -20 96 -45 51 -25 96 -45 101 -45 5 0 14
-4 21 -10 7 -5 95 -52 197 -103 102 -52 208 -106 235 -122 139 -77 160 -89
163 -97 2 -4 9 -8 16 -8 7 0 57 -29 111 -65 55 -36 102 -65 106 -65 4 0 9 -3
11 -7 3 -7 76 -68 117 -98 8 -5 66 -62 131 -127 159 -159 256 -310 306 -478
55 -183 65 -475 24 -665 -31 -142 -111 -306 -210 -431 -50 -61 -137 -154 -146
-154 -2 0 -12 -8 -22 -17 -26 -26 -78 -64 -120 -90 -38 -23 -153 -86 -162 -88
-3 -1 -14 -5 -25 -10 -70 -29 -115 -44 -115 -39 0 4 -6 2 -12 -4 -11 -8 -29
-14 -88 -27 -3 -1 -18 -4 -35 -8 -16 -4 -40 -9 -53 -12 -13 -2 -31 -6 -40 -9
-43 -13 -173 -21 -342 -20 -197 0 -276 6 -415 33 -88 17 -109 22 -179 42 -38
12 -76 22 -85 24 -18 4 -162 60 -188 74 -10 5 -43 22 -73 36 -48 24 -144 79
-204 118 -132 84 -289 232 -384 359 -102 140 -205 344 -243 483 -4 17 -15 57
-24 90 -20 72 -24 89 -31 135 -2 19 -7 46 -10 60 -9 47 -17 112 -27 235 -2 19
-10 20 -189 22 l-186 1 3 -151 c3 -84 7 -239 9 -346 3 -106 8 -196 10 -199 3
-2 1 -12 -4 -22 -5 -10 -7 -20 -3 -23 3 -4 7 -64 9 -134 7 -329 14 -495 19
-503 4 -6 1 -10 -5 -10 -6 0 -8 -4 -5 -10 3 -5 8 -94 11 -197 2 -104 6 -246 8
-318 l4 -130 248 0 249 0 -1 25 c-1 14 -5 52 -9 85 -4 33 -8 76 -11 95 -4 39
-9 83 -19 153 -5 43 4 62 20 38 8 -13 197 -121 280 -159 39 -18 77 -37 86 -41
8 -5 47 -21 85 -36 38 -14 85 -32 104 -40 37 -14 162 -55 183 -59 7 -2 19 -6
27 -9 8 -3 26 -8 40 -10 14 -3 54 -13 90 -22 35 -9 74 -18 85 -20 11 -2 20 -4
20 -5 0 -1 11 -3 25 -6 14 -2 48 -8 75 -13 28 -5 73 -13 100 -17 28 -4 57 -8
65 -9 26 -4 137 -16 192 -21 70 -6 428 -6 498 0 30 3 87 9 125 12 39 4 78 7
88 8 9 0 17 3 17 6 0 3 12 5 26 5 26 -2 191 28 259 46 22 6 49 13 61 15 30 5
203 60 239 75 17 7 33 13 38 14 4 2 10 4 15 5 4 1 10 2 15 1 4 0 7 3 7 9 0 5
5 10 11 10 12 0 145 66 199 99 19 11 42 24 50 28 18 8 141 95 194 137 66 52
219 208 270 274 69 90 151 224 196 318 36 76 106 268 115 317 3 12 9 45 14 72
52 262 46 567 -15 810 -29 115 -45 161 -92 265 -24 52 -114 214 -122 220 -4 3
-14 19 -23 35 -48 93 -257 317 -386 415 -19 14 -42 33 -52 42 -49 46 -445 298
-468 298 -5 0 -11 3 -13 8 -4 10 -610 312 -625 312 -7 0 -13 5 -13 10 0 6 -4
10 -10 10 -44 0 -902 426 -1064 529 -181 114 -269 184 -416 331 -99 98 -175
198 -212 280 -22 47 -57 130 -57 133 0 1 -2 9 -5 17 -30 91 -40 169 -42 320
-3 196 17 319 73 450 28 65 76 155 87 162 6 4 7 8 3 8 -4 0 -3 6 3 13 6 6 32
42 59 78 97 130 248 255 381 316 66 30 190 74 190 67 0 -4 6 -2 13 4 6 5 35
13 62 17 28 5 57 10 65 11 76 15 131 18 295 18 189 -1 252 -5 375 -29 19 -3
43 -7 52 -9 10 -1 21 -5 24 -9 4 -4 16 -7 27 -7 24 0 198 -59 212 -71 5 -5 17
-9 27 -9 10 0 18 -4 18 -10 0 -5 6 -10 13 -10 29 0 213 -122 302 -200 112 -99
295 -309 295 -338 0 -6 4 -12 8 -14 15 -6 104 -170 154 -282 58 -134 139 -392
153 -491 2 -16 7 -46 10 -65 7 -41 11 -74 20 -155 11 -111 -9 -100 185 -100
l170 0 0 1056 0 1056 -242 -1 -243 -1 1 -35 c1 -19 4 -67 8 -106 3 -39 8 -100
11 -135 3 -35 8 -79 10 -96 3 -18 3 -33 1 -33 -2 0 -46 29 -99 64 -76 51 -293
166 -392 207 -22 10 -204 70 -220 73 -5 1 -19 5 -30 9 -11 3 -31 8 -45 11 -14
3 -56 12 -95 21 -38 8 -83 18 -99 21 -16 2 -32 7 -36 9 -3 2 -28 6 -56 10 -27
3 -56 7 -64 10 -8 2 -31 7 -50 9 -162 22 -206 27 -280 32 -75 6 -319 11 -323
8z"/>
<path d="M8837 17143 c-2 -2 -578 -12 -985 -18 -128 -2 -236 -5 -238 -8 -3 -2
-5 -96 -6 -208 l-1 -204 84 1 c76 1 314 11 314 14 0 0 151 9 250 13 l40 2 -2
-70 c-1 -38 -5 -110 -9 -160 -6 -86 -10 -795 -18 -3750 -2 -748 -6 -1385 -9
-1415 -4 -30 -8 -77 -11 -105 -16 -197 -118 -375 -250 -435 -25 -11 -47 -20
-50 -20 -2 0 -17 -5 -33 -12 -15 -6 -30 -12 -33 -13 -6 -1 -63 -13 -100 -20
-13 -3 -56 -7 -95 -11 -38 -3 -71 -7 -73 -9 -2 -2 -4 -73 -5 -159 -2 -174 -5
-167 70 -155 24 3 45 4 48 1 7 -7 74 -7 81 1 3 3 11 4 17 1 23 -8 109 -10 113
-2 3 5 10 6 15 3 14 -9 89 -11 89 -3 0 4 10 4 23 -1 13 -5 30 -5 39 0 9 5 19
5 22 1 3 -5 26 -6 51 -2 25 4 45 4 45 1 0 -7 97 -4 118 4 6 2 12 1 12 -3 0 -4
38 -7 85 -7 47 0 85 3 85 7 0 4 10 4 23 -1 13 -5 30 -5 39 0 10 6 19 6 22 0 3
-5 21 -5 40 -1 19 4 37 5 40 2 5 -5 71 -6 79 -2 8 5 77 4 77 -2 0 -4 14 -3 30
2 17 5 30 5 30 1 0 -4 23 -5 50 -1 28 4 52 4 55 2 7 -7 74 -7 81 1 3 3 11 4
17 1 23 -8 109 -10 113 -2 3 5 10 6 15 3 14 -9 89 -11 89 -3 0 4 10 4 23 -1
13 -5 30 -5 39 0 9 5 19 5 22 1 3 -5 26 -6 51 -2 25 4 45 4 45 1 0 -7 97 -4
117 4 7 2 15 0 18 -5 3 -6 15 -6 30 0 13 5 27 5 29 1 3 -5 20 -6 38 -2 l33 7
2 207 c2 224 5 212 -47 209 -3 0 -61 -3 -130 -7 -156 -9 -205 -13 -205 -15 0
-1 -54 -3 -120 -6 -66 -2 -135 -6 -153 -8 l-33 -4 6 62 c14 147 18 468 19
1478 1 711 4 1078 11 1079 6 1 39 0 75 -1 92 -4 379 -4 483 1 l87 3 64 -64
c84 -87 177 -202 221 -275 11 -18 53 -86 93 -150 39 -64 72 -120 72 -125 0 -4
3 -10 8 -12 10 -4 62 -85 62 -97 0 -5 3 -11 8 -13 8 -3 122 -184 122 -194 0
-2 9 -14 20 -26 11 -12 20 -28 20 -35 0 -7 5 -13 10 -13 6 0 10 -4 10 -9 0 -5
30 -57 68 -115 37 -58 74 -117 82 -131 8 -14 58 -93 110 -177 52 -84 97 -157
99 -163 2 -5 7 -12 11 -15 8 -6 110 -169 125 -200 5 -11 13 -20 17 -20 5 0 8
-4 8 -9 0 -10 119 -202 131 -211 3 -3 8 -10 10 -15 2 -6 45 -70 94 -143 50
-73 95 -140 100 -149 6 -9 20 -28 33 -42 12 -14 22 -31 22 -38 0 -6 4 -13 8
-15 4 -1 30 -32 57 -68 84 -109 160 -194 310 -343 149 -147 140 -142 243 -135
23 2 42 0 42 -4 0 -4 14 -3 30 2 17 5 30 5 30 1 0 -4 27 -4 60 -1 33 3 60 3
60 -1 0 -4 14 -4 30 1 16 5 30 6 30 2 0 -4 16 -7 35 -7 19 0 35 3 35 7 0 4 14
3 30 -2 17 -5 30 -5 30 0 0 4 12 5 27 1 16 -4 45 -4 65 -1 21 4 38 4 38 -1 0
-4 14 -4 30 1 17 5 30 6 30 2 0 -4 16 -7 35 -7 19 0 35 3 35 7 0 4 14 3 30 -2
17 -5 30 -5 30 0 0 4 12 5 27 1 16 -4 45 -4 65 -1 21 4 38 4 38 -1 0 -4 14 -4
30 1 17 5 30 5 30 0 0 -5 13 -5 30 0 17 5 30 5 30 0 0 -5 13 -5 30 0 17 5 30
6 30 2 0 -4 15 -7 34 -7 l35 0 -2 160 -2 160 -30 1 c-131 9 -245 25 -285 41
-8 4 -18 7 -22 8 -5 2 -9 3 -10 5 -2 1 -10 3 -18 5 -29 5 -140 59 -140 67 0 4
-5 8 -12 8 -29 0 -245 194 -308 278 -14 18 -33 42 -42 53 -10 10 -18 22 -18
27 0 4 -11 19 -25 34 -14 15 -25 29 -25 31 0 3 -19 33 -42 67 -24 34 -48 69
-53 78 -29 48 -71 107 -77 110 -5 2 -8 8 -8 13 0 6 -21 42 -47 82 -27 40 -52
80 -58 90 -15 25 -100 158 -182 285 -40 62 -73 116 -73 121 0 5 -7 14 -15 21
-8 7 -21 24 -28 39 -26 49 -233 372 -424 659 -70 107 -132 201 -138 210 -5 9
-13 21 -18 26 -4 6 -32 46 -62 88 -83 117 -170 212 -268 289 -26 21 -44 40
-40 42 5 2 26 8 48 12 22 5 45 10 50 11 6 2 22 6 37 9 15 3 40 10 55 16 16 6
28 10 28 9 0 -13 338 100 452 151 87 38 228 111 244 125 8 8 19 14 23 14 9 0
69 42 78 55 5 7 8 7 8 0 0 -6 3 -6 8 0 4 6 27 26 52 45 72 55 180 151 234 209
28 30 58 62 66 70 8 9 33 41 55 71 21 30 42 57 45 60 12 12 60 90 60 100 0 5
4 10 10 10 5 0 9 3 8 8 0 4 16 43 37 86 20 44 38 84 39 90 1 6 4 16 7 21 6 9
42 113 44 125 0 3 6 21 13 41 7 20 15 46 17 58 2 13 6 30 9 39 3 9 7 28 10 42
3 14 10 50 16 80 20 104 24 156 24 330 0 210 -8 304 -39 430 -9 36 -18 74 -20
85 -3 11 -14 45 -26 75 -11 30 -21 60 -22 65 -12 54 -139 269 -213 362 -57 70
-207 213 -224 213 -4 0 -10 4 -12 8 -7 18 -164 115 -277 172 -65 33 -122 60
-125 60 -3 0 -25 9 -49 19 -94 43 -413 142 -464 144 -7 0 -13 4 -13 9 0 5 -4
7 -9 3 -5 -3 -31 0 -58 6 -26 6 -59 13 -73 15 -14 2 -36 6 -50 9 -14 3 -47 7
-75 11 -27 3 -57 8 -65 9 -9 2 -43 6 -75 10 -33 4 -73 9 -90 11 -50 6 -217 18
-262 18 -24 1 -43 3 -43 6 0 3 -42 6 -93 6 -50 1 -247 5 -437 9 -342 7 -760
12 -763 8z m837 -385 c8 13 345 3 466 -13 19 -2 58 -7 85 -11 28 -3 82 -12
120 -21 39 -8 81 -17 95 -19 34 -7 152 -41 225 -66 128 -43 318 -147 388 -211
15 -15 27 -24 27 -22 0 11 111 -114 173 -195 21 -27 89 -157 108 -205 12 -32
44 -120 45 -125 0 -3 3 -12 6 -20 8 -20 37 -138 42 -170 3 -14 5 -25 6 -25 1
0 3 -20 5 -45 2 -25 7 -65 11 -90 15 -96 7 -436 -12 -530 -3 -14 -7 -43 -10
-65 -3 -21 -7 -42 -10 -46 -2 -4 -6 -24 -10 -45 -8 -51 -59 -195 -95 -268
-108 -218 -260 -378 -504 -532 -53 -33 -184 -94 -202 -94 -7 0 -13 -5 -13 -12
0 -6 -3 -9 -6 -6 -3 4 -36 -5 -72 -18 -124 -45 -307 -89 -457 -109 -22 -3 -56
-8 -75 -11 -174 -24 -478 -32 -705 -18 -60 3 -128 7 -150 8 -29 1 -41 6 -45
19 -7 24 -3 2243 4 2380 3 60 7 116 10 125 3 9 8 31 11 47 7 36 8 37 25 95 8
25 20 51 27 58 7 7 13 19 13 25 0 20 66 96 114 132 42 33 119 67 176 79 90 20
116 24 122 20 4 -2 9 0 13 6 4 7 12 7 25 0 10 -6 21 -6 24 -2z"/>
<path d="M13641 17115 c-4 -5 -7 -100 -6 -210 l1 -200 79 1 c87 1 349 13 405
19 19 2 73 5 120 6 l85 3 -2 -39 c-1 -22 -4 -80 -7 -130 -14 -239 -18 -710
-21 -2840 -2 -1265 -6 -2325 -8 -2355 -3 -30 -8 -82 -11 -115 -11 -118 -25
-173 -69 -265 -34 -72 -112 -156 -167 -182 -39 -18 -89 -39 -105 -44 -28 -8
-62 -16 -80 -19 -11 -2 -20 -4 -20 -5 0 -3 -33 -7 -115 -15 -41 -4 -77 -11
-80 -15 -4 -7 -5 -254 -1 -298 0 -7 6 -10 11 -7 6 3 10 1 10 -5 0 -7 6 -8 19
-1 10 6 21 8 24 5 8 -9 97 -10 97 -2 0 4 10 4 23 -1 13 -5 30 -5 39 0 9 5 19
5 22 1 3 -5 26 -6 51 -2 25 4 45 4 45 1 0 -7 97 -4 118 4 6 2 12 1 12 -3 0 -4
38 -7 85 -7 47 0 85 3 85 7 0 4 10 4 23 -1 13 -5 30 -5 39 0 10 6 19 6 22 0 3
-5 21 -5 40 -1 19 4 37 5 40 2 5 -5 71 -6 79 -2 8 5 77 4 77 -2 0 -4 14 -3 30
2 17 5 30 5 30 1 0 -4 27 -4 60 -1 33 3 60 3 60 -1 0 -4 14 -4 30 1 17 5 30 6
30 2 0 -4 16 -7 35 -7 19 0 35 3 35 7 0 4 14 3 30 -2 17 -5 30 -5 30 0 0 4 12
5 27 1 16 -4 45 -4 65 -1 21 4 38 4 38 -1 0 -4 14 -4 30 1 17 5 30 6 30 2 0
-4 16 -7 35 -7 19 0 35 3 35 7 0 4 14 3 30 -2 17 -5 30 -5 30 0 0 5 12 5 28 1
15 -4 39 -4 54 0 15 4 29 4 32 1 5 -5 71 -7 79 -2 8 5 77 4 77 -2 0 -4 14 -3
30 2 17 5 30 6 30 2 0 -8 85 -6 99 2 5 4 12 2 15 -3 4 -5 18 -6 34 -2 l27 7 0
205 0 204 -90 -1 c-49 -1 -142 -5 -205 -8 -63 -4 -160 -9 -215 -12 -55 -2
-117 -6 -138 -8 l-37 -4 4 77 c3 42 6 76 6 76 8 0 12 694 15 2750 2 1359 6
2499 8 2535 15 185 69 329 162 424 48 49 144 106 178 106 9 0 18 4 21 9 9 14
195 44 261 42 l31 -1 0 160 c0 88 -2 158 -4 155 -2 -2 -15 0 -28 5 -14 6 -26
6 -29 -1 -4 -6 -13 -6 -23 0 -9 5 -26 5 -39 0 -13 -5 -23 -5 -23 -1 0 4 -38 7
-85 7 -47 0 -85 -3 -85 -7 0 -4 -10 -4 -23 1 -13 5 -30 5 -39 0 -10 -6 -19 -6
-22 0 -3 5 -21 5 -40 1 -19 -4 -37 -5 -40 -2 -8 7 -74 7 -82 -1 -3 -3 -11 -4
-17 -1 -23 8 -109 10 -113 2 -3 -5 -10 -6 -15 -3 -14 9 -89 11 -89 3 0 -4 -10
-4 -23 1 -13 5 -30 5 -39 0 -9 -5 -19 -5 -22 -1 -3 5 -26 6 -51 2 -25 -4 -45
-4 -45 -1 0 7 -97 4 -117 -4 -7 -2 -13 -1 -13 3 0 4 -38 7 -85 7 -47 0 -85 -3
-85 -7 0 -4 -10 -4 -23 1 -13 5 -30 5 -39 0 -10 -6 -19 -6 -22 0 -3 5 -21 5
-40 1 -19 -4 -37 -5 -40 -2 -8 7 -74 7 -82 -1 -3 -3 -11 -4 -17 -1 -23 8 -109
10 -113 2 -3 -5 -10 -6 -15 -3 -14 9 -89 11 -89 3 0 -4 -10 -4 -23 1 -13 5
-30 5 -39 0 -9 -5 -19 -5 -22 -1 -3 5 -26 6 -51 2 -25 -4 -45 -4 -45 -1 0 10
-211 6 -219 -4z"/>
<path d="M22328 17122 c-18 -2 -28 -9 -28 -20 -1 -25 -1 -353 0 -380 l0 -23
123 6 c67 4 163 9 212 11 50 2 119 6 155 8 36 3 94 6 130 8 l65 3 -1 -60 c-1
-33 -5 -116 -8 -185 -4 -69 -9 -197 -12 -285 -6 -204 -6 -218 -4 -230 6 -29 4
-195 -2 -195 -4 0 -4 -10 0 -22 8 -25 8 -68 0 -89 -3 -8 -2 -23 2 -34 4 -11 4
-32 -1 -47 -4 -16 -4 -28 1 -28 5 0 5 -13 0 -30 -5 -16 -5 -32 -2 -34 8 -5 6
-201 -2 -221 -3 -8 -2 -16 2 -19 5 -3 7 -201 2 -201 -6 0 -7 -36 -2 -39 8 -5
6 -201 -2 -221 -3 -8 -2 -16 2 -19 8 -5 7 -119 -2 -141 -3 -8 -2 -16 2 -19 7
-4 7 -188 0 -203 -4 -8 -3 -24 2 -40 6 -21 4 -193 -2 -193 -4 0 -4 -10 0 -22
8 -25 8 -68 0 -89 -3 -8 -2 -23 2 -34 4 -11 4 -32 -1 -47 -4 -16 -4 -28 1 -28
5 0 5 -13 0 -30 -5 -16 -5 -32 -2 -34 8 -5 6 -201 -2 -221 -3 -8 -2 -16 2 -19
7 -4 7 -188 0 -203 -4 -8 -3 -24 2 -40 6 -21 4 -193 -2 -193 -4 0 -4 -10 0
-22 8 -25 8 -68 0 -89 -3 -8 -2 -23 2 -34 4 -11 4 -32 -1 -47 -4 -16 -4 -28 1
-28 5 0 5 -13 0 -30 -5 -16 -5 -32 -2 -34 8 -5 6 -201 -2 -221 -3 -8 -2 -16 2
-19 5 -3 7 -201 2 -201 -6 0 -7 -36 -2 -39 8 -5 6 -201 -2 -221 -3 -8 -2 -16
2 -19 8 -5 7 -119 -2 -141 -3 -8 -2 -16 2 -19 8 -4 7 -190 -1 -203 -2 -4 -1
-17 3 -28 4 -11 4 -32 -1 -47 -4 -16 -3 -30 2 -34 5 -3 7 -10 3 -15 -3 -6 -7
-73 -9 -150 -5 -194 -16 -348 -31 -429 -9 -51 -8 -49 -18 -75 -4 -11 -13 -33
-19 -50 -16 -46 -71 -127 -108 -161 -43 -39 -104 -76 -112 -67 -4 3 -7 2 -7
-4 0 -21 -197 -66 -292 -67 -27 -1 -48 -4 -48 -8 0 -5 -5 -7 -11 -5 -11 2 -16
-249 -5 -260 2 -3 1 -16 -4 -28 -10 -28 3 -36 36 -24 12 4 25 5 28 2 8 -9 76
-9 76 -1 0 4 10 4 23 -1 13 -5 30 -5 39 0 9 5 19 5 22 1 3 -5 26 -6 51 -2 25
4 45 4 45 1 0 -3 27 -6 60 -6 33 0 60 3 60 7 0 4 11 3 25 -2 15 -6 27 -6 30 0
3 5 15 6 27 1 11 -4 40 -4 64 -1 24 4 44 4 44 1 0 -6 27 -6 110 -1 19 1 38 1
43 0 18 -4 78 -3 83 3 3 3 11 4 17 1 23 -8 109 -10 113 -2 3 5 10 6 15 3 14
-9 89 -11 89 -3 0 4 10 4 23 -1 13 -5 30 -5 39 0 9 5 19 5 22 1 3 -5 26 -6 51
-2 25 4 45 4 45 1 0 -7 97 -4 118 4 6 2 12 1 12 -3 0 -4 38 -7 85 -7 47 0 85
3 85 7 0 4 10 4 23 -1 13 -5 30 -5 39 0 10 6 19 6 22 0 3 -5 21 -5 40 -1 19 4
37 5 40 2 5 -5 71 -6 79 -2 8 5 77 4 77 -2 0 -4 14 -3 30 2 17 5 30 5 30 1 0
-4 23 -5 50 -1 28 4 52 4 55 2 7 -7 74 -7 81 1 3 3 11 4 17 1 23 -8 109 -10
113 -2 3 5 10 6 15 3 14 -9 89 -11 89 -3 0 4 10 4 23 -1 13 -5 30 -5 39 0 9 5
19 5 22 1 3 -5 26 -6 51 -2 25 4 45 4 45 1 0 -7 97 -4 118 4 6 2 12 1 12 -3 0
-4 38 -7 85 -7 47 0 85 3 85 7 0 4 10 4 23 -1 13 -5 30 -5 39 0 10 6 19 6 22
0 3 -5 21 -5 40 -1 19 4 37 5 40 2 5 -5 71 -6 79 -2 8 5 77 4 77 -2 0 -4 14
-3 30 2 17 5 30 5 30 1 0 -4 27 -4 60 -1 33 3 60 3 60 -1 0 -4 14 -4 30 1 17
5 30 6 30 2 0 -4 16 -7 35 -7 19 0 35 3 35 7 0 4 14 3 30 -2 17 -5 30 -5 30 0
0 4 12 5 27 1 16 -4 45 -4 65 -1 21 4 38 4 38 -1 0 -4 14 -4 30 1 17 5 30 6
30 2 0 -4 16 -7 35 -7 19 0 35 3 35 7 0 4 14 3 30 -2 17 -5 30 -5 30 0 0 5 12
5 28 1 15 -4 39 -4 54 0 15 4 29 4 32 1 8 -7 74 -7 82 1 3 3 11 4 17 1 23 -8
109 -10 113 -2 3 5 10 6 15 3 14 -9 89 -11 89 -3 0 4 10 4 23 -1 13 -5 30 -5
39 0 9 5 19 5 22 1 3 -5 26 -6 51 -2 25 4 45 4 45 1 0 -7 97 -4 118 4 6 2 12
1 12 -3 0 -4 38 -7 85 -7 47 0 85 3 85 7 0 4 13 3 30 -2 18 -5 32 -5 36 1 3 5
12 6 20 1 20 -11 84 -2 85 12 1 6 3 45 4 86 7 216 18 530 21 640 2 69 5 202 8
295 8 234 15 469 21 668 4 128 2 167 -8 167 -27 1 -186 2 -248 1 l-66 -1 0
-42 c1 -56 -12 -266 -17 -298 -3 -14 -8 -47 -11 -75 -8 -56 -13 -83 -18 -105
-2 -8 -7 -33 -12 -55 -4 -22 -10 -44 -14 -50 -3 -5 -6 -15 -7 -22 -5 -33 -47
-154 -55 -158 -5 -4 -9 -12 -9 -20 0 -17 -95 -181 -134 -232 -83 -108 -235
-230 -351 -283 -60 -28 -220 -80 -245 -80 -9 0 -20 -3 -24 -7 -3 -4 -14 -7
-24 -8 -9 -1 -60 -9 -112 -18 -196 -33 -73 -29 -1585 -53 -143 -2 -278 -4
-300 -5 -22 0 -44 0 -50 1 -5 1 -14 1 -20 0 -5 -1 -58 -3 -118 -4 l-107 -2 5
45 c14 137 19 508 19 1643 1 831 4 1258 11 1259 15 2 121 6 285 13 80 3 210 9
290 13 186 8 554 8 645 0 140 -13 171 -19 245 -43 78 -26 120 -51 181 -106 36
-33 99 -119 103 -141 1 -7 7 -21 13 -32 12 -23 20 -52 42 -147 6 -27 11 -51
10 -55 -1 -5 0 -10 1 -13 5 -13 9 -65 14 -174 3 -65 8 -121 11 -124 7 -7 294
-9 304 -2 4 3 7 455 7 1005 l-1 999 -30 6 c-16 3 -111 5 -210 4 l-180 -1 2
-24 c3 -50 17 -230 27 -344 3 -38 8 -101 11 -140 3 -38 8 -95 10 -125 3 -30 7
-85 10 -122 3 -38 2 -68 -2 -69 -42 -6 -223 -2 -223 5 0 5 -6 4 -12 -1 -7 -5
-42 -7 -78 -6 -36 2 -74 3 -85 3 -11 -1 -26 -1 -32 -1 -117 4 -244 2 -253 -4
-8 -5 -11 -4 -7 1 3 5 -11 8 -31 6 -21 -1 -46 -2 -57 -2 -11 0 -243 1 -515 3
-377 1 -496 5 -500 14 -4 10 -5 1758 0 1758 0 0 3 54 5 120 2 66 6 143 9 170
8 72 17 145 22 169 6 31 56 170 63 176 3 3 19 24 35 48 37 54 93 105 148 134
50 26 140 58 177 63 14 2 37 6 51 9 14 3 47 8 74 11 27 3 53 8 58 11 4 3 8 0
8 -6 0 -6 5 -8 12 -4 7 4 59 9 118 10 58 1 229 5 380 9 538 13 644 10 820 -24
50 -10 173 -44 210 -58 8 -3 21 -7 28 -9 7 -1 42 -16 79 -33 199 -93 363 -281
451 -514 19 -50 36 -101 37 -112 2 -11 8 -42 15 -70 7 -27 13 -61 15 -75 1
-14 5 -43 9 -65 11 -66 16 -134 20 -252 2 -61 6 -115 9 -120 3 -5 35 -6 71 -3
36 3 66 3 66 0 0 -6 119 -2 138 5 6 2 12 -1 12 -7 0 -7 4 -7 13 0 9 8 12 33
11 79 -3 73 -12 359 -19 613 -2 85 -7 241 -10 345 -10 313 -16 527 -16 575 -1
73 -5 79 -44 70 -19 -4 -36 -5 -39 -2 -8 7 -74 7 -82 -1 -3 -3 -11 -4 -17 -1
-23 8 -109 10 -113 2 -3 -5 -10 -6 -15 -3 -14 9 -89 11 -89 3 0 -4 -10 -4 -23
1 -13 5 -30 5 -39 0 -9 -5 -19 -5 -22 -1 -3 5 -26 6 -51 2 -25 -4 -45 -4 -45
-1 0 7 -97 4 -117 -4 -7 -2 -13 -1 -13 3 0 4 -38 7 -85 7 -47 0 -85 -3 -85 -7
0 -4 -10 -4 -23 1 -13 5 -30 5 -39 0 -10 -6 -19 -6 -22 0 -3 5 -21 5 -40 1
-19 -4 -37 -5 -40 -2 -8 7 -74 7 -82 -1 -3 -3 -11 -4 -17 -1 -23 8 -109 10
-113 2 -3 -5 -10 -6 -15 -3 -14 9 -89 11 -89 3 0 -4 -10 -4 -23 1 -13 5 -30 5
-39 0 -9 -5 -19 -5 -22 -1 -3 5 -26 6 -51 2 -25 -4 -45 -4 -45 -1 0 7 -97 4
-117 -4 -7 -2 -13 -1 -13 3 0 4 -38 7 -85 7 -47 0 -85 -3 -85 -7 0 -4 -10 -4
-23 1 -13 5 -30 5 -39 0 -10 -6 -19 -6 -22 0 -3 5 -21 5 -40 1 -19 -4 -37 -5
-40 -2 -8 7 -74 7 -82 -1 -3 -3 -11 -4 -17 -1 -23 8 -109 10 -113 2 -3 -5 -10
-6 -15 -3 -14 9 -89 11 -89 3 0 -4 -10 -4 -23 1 -13 5 -30 5 -39 0 -9 -5 -19
-5 -22 -1 -3 5 -26 6 -51 2 -25 -4 -45 -4 -45 -1 0 7 -97 4 -117 -4 -7 -2 -13
-1 -13 3 0 4 -38 7 -85 7 -47 0 -85 -3 -85 -7 0 -4 -10 -4 -23 1 -13 5 -30 5
-39 0 -10 -6 -19 -6 -22 0 -3 5 -21 5 -40 1 -19 -4 -37 -5 -40 -2 -8 7 -74 7
-82 -1 -3 -3 -11 -4 -17 -1 -23 8 -109 10 -113 2 -3 -5 -10 -6 -15 -3 -14 9
-89 11 -89 3 0 -4 -10 -4 -23 1 -13 5 -30 5 -39 0 -9 -5 -19 -5 -22 -1 -3 5
-26 6 -51 2 -25 -4 -45 -4 -45 -1 0 7 -97 4 -117 -4 -7 -2 -13 -1 -13 3 0 4
-38 7 -85 7 -47 0 -85 -3 -85 -7 0 -4 -10 -4 -23 1 -13 5 -30 5 -39 0 -10 -6
-19 -6 -22 0 -3 5 -21 5 -40 1 -19 -4 -37 -5 -40 -2 -8 7 -74 7 -82 -1 -3 -3
-11 -4 -17 -1 -23 8 -109 10 -113 2 -3 -5 -10 -6 -15 -3 -14 9 -89 11 -89 3 0
-4 -10 -4 -23 1 -13 5 -30 5 -39 0 -9 -5 -19 -5 -22 -1 -3 5 -26 6 -51 2 -25
-4 -45 -4 -45 -1 0 7 -107 4 -127 -4 -6 -2 -13 -1 -15 3 -2 4 -15 6 -30 4z"/>
</g>
</svg>
